<mxfile host="app.diagrams.net" modified="2023-11-23T17:25:29.941Z" agent="Mozilla/5.0 (Windows NT 10.0; Win64; x64; rv:121.0) Gecko/20100101 Firefox/121.0" version="22.1.3" etag="gYBWvkdTvBAh4AOHpuRn" type="github">
  <diagram name="PÃ¡gina-1" id="ehy14N5YY1RMv1l1ZRHz">
    <mxGraphModel>
      <root>
        <mxCell id="0" />
        <mxCell id="1" parent="0" />
      </root>
    </mxGraphModel>
  </diagram>
</mxfile>
